<svg width="35" height="36" viewBox="0 0 35 36" fill="none" xmlns="http://www.w3.org/2000/svg">
<path fill-rule="evenodd" clip-rule="evenodd" d="M29.0458 27.2174C31.5112 24.3342 33 20.591 33 16.5C33 7.3873 25.6127 0 16.5 0C7.3873 0 0 7.3873 0 16.5C0 25.6127 7.3873 33 16.5 33C20.0791 33 23.3921 31.8604 26.0958 29.9243L31.4852 35.3137L34.3137 32.4853L29.0458 27.2174Z" fill="#FFD100"/>
<path fill-rule="evenodd" clip-rule="evenodd" d="M6.87491 15V13H13.3749L15.9999 11H19.6249L18.4999 8H15.8749V6H19.9999L20.9999 9.00001H24.8749V12.125H22.1249L23.6249 16.125L21.6249 16.375L20.3749 13H19.4999L17.8749 18.875L14.8749 20L14.6885 19.8897C14.7289 20.1288 14.75 20.3744 14.75 20.625C14.75 23.0413 12.7913 25 10.375 25C7.95876 25 6 23.0413 6 20.625C6 18.7101 7.23024 17.0825 8.94347 16.4896L8.74991 16.375V15H6.87491ZM27.7502 20.625C27.7502 23.0413 25.7914 25 23.3752 25C20.9589 25 19.0002 23.0413 19.0002 20.625C19.0002 18.2088 20.9589 16.25 23.3752 16.25C25.7914 16.25 27.7502 18.2088 27.7502 20.625ZM20.8596 20.625C20.8596 22.0143 21.9859 23.1406 23.3752 23.1406C24.7645 23.1406 25.8907 22.0143 25.8907 20.625C25.8907 19.2357 24.7645 18.1094 23.3752 18.1094C21.9859 18.1094 20.8596 19.2357 20.8596 20.625ZM10.375 23.1406C8.9857 23.1406 7.85944 22.0143 7.85944 20.625C7.85944 19.2357 8.9857 18.1094 10.375 18.1094C11.7643 18.1094 12.8906 19.2357 12.8906 20.625C12.8906 22.0143 11.7643 23.1406 10.375 23.1406Z" fill="white"/>
</svg>
