<svg width="35" height="36" viewBox="0 0 35 36" fill="none" xmlns="http://www.w3.org/2000/svg">
<path fill-rule="evenodd" clip-rule="evenodd" d="M29.0458 27.2174C31.5112 24.3342 33 20.591 33 16.5C33 7.3873 25.6127 0 16.5 0C7.3873 0 0 7.3873 0 16.5C0 25.6127 7.3873 33 16.5 33C20.0791 33 23.3921 31.8604 26.0958 29.9243L31.4852 35.3137L34.3137 32.4853L29.0458 27.2174Z" fill="#FFD100"/>
<path d="M12.3333 24.5V19L6.95556 12.5H5C5.64247 10.572 6.17065 9.08168 7.44444 7.5C9.09585 5.95864 10.7808 5.31678 13.3111 4.5C11.6868 6.27776 10.9305 7.26868 10.3778 9C9.86491 10.5429 9.85937 11.2538 9.88889 12.5H8.91111L13.3111 17.5H15.2667V12.5H10.8667C10.991 10.8937 11.1975 9.3882 12.3333 7C13.3631 5.58738 14.2889 4.5 16.2444 4C18.2 5 19.1778 5.5 20.1556 7.5C21.1333 9.5 20.9433 10.3177 21.1333 12.5H17.2222V17.5H19.1778L24.0667 12.5H22.6L22.1111 8.5C21.6222 7 20.1556 6 18.6889 4.5C20.6444 5 23.5982 6.36465 25.0444 8C26.1424 9.75959 26.5657 10.7468 27 12.5H26.0222L20.1556 19V25L18.6889 26H13.8L12.3333 24.5Z" fill="white"/>
</svg>
