<svg width="35" height="36" viewBox="0 0 35 36" fill="none" xmlns="http://www.w3.org/2000/svg">
<path fill-rule="evenodd" clip-rule="evenodd" d="M29.0458 27.2174C31.5112 24.3342 33 20.591 33 16.5C33 7.3873 25.6127 0 16.5 0C7.3873 0 0 7.3873 0 16.5C0 25.6127 7.3873 33 16.5 33C20.0791 33 23.3921 31.8604 26.0958 29.9243L31.4852 35.3137L34.3137 32.4853L29.0458 27.2174Z" fill="#FFD100"/>
<path fill-rule="evenodd" clip-rule="evenodd" d="M12.0569 18.5H8L9.32962 15.4609C8.85953 15.4099 8.38169 15.4684 7.93436 15.6348C7.33378 15.8582 6.81857 16.2646 6.46155 16.7967C6.10452 17.3288 5.92372 17.9597 5.9447 18.6001C5.96568 19.2405 6.18738 19.8582 6.57847 20.3658C6.96955 20.8733 7.51026 21.2452 8.12417 21.4288C8.73808 21.6124 9.39416 21.5984 9.99971 21.3889C10.6052 21.1793 11.1296 20.7848 11.4988 20.261C11.8621 19.7454 12.0569 19.1303 12.0569 18.5ZM14 18.5C14 19.5309 13.6813 20.537 13.087 21.3803C12.4833 22.237 11.6256 22.8823 10.6351 23.2251C9.6447 23.5678 8.5716 23.5907 7.56747 23.2904C6.56334 22.9901 5.67896 22.3819 5.03928 21.5517C4.39961 20.7215 4.037 19.7112 4.00268 18.6637C3.96837 17.6162 4.26408 16.5844 4.84804 15.7141C5.43201 14.8438 6.27469 14.179 7.25701 13.8136C8.1775 13.4713 9.177 13.4081 10.1308 13.6296L11.5 10.5L10.5 9.5H8.5C7.94212 9.58521 7.48291 8.75259 7.5 8.5C7.67548 7.85338 7.92214 7.66497 8.5 7.5H11.5L13 9.5H19.5L18 7H16C15.5643 7 15.5483 6.74521 15.5165 6.23996C15.5118 6.16542 15.5068 6.08543 15.5 6C15.5083 5.92076 15.514 5.84251 15.5196 5.76678C15.5507 5.34418 15.576 5 16 5H19C19 5 21.795 9.94496 23.8604 13.6316C25.0138 13.3616 26.2276 13.5096 27.2844 14.0524C28.3874 14.6189 29.2405 15.575 29.6782 16.7352C30.1158 17.8953 30.1068 19.1767 29.6528 20.3306C29.1989 21.4845 28.3323 22.4285 27.2214 22.9794C26.1106 23.5303 24.8346 23.6488 23.6413 23.3119C22.448 22.9749 21.4225 22.2066 20.7638 21.156C20.1051 20.1055 19.8603 18.8476 20.0769 17.6267C20.29 16.4249 20.9353 15.3433 21.89 14.5849L20.5 12.5L17 18.5H14ZM22.9739 16.2109C22.4588 16.6669 22.1109 17.2849 21.99 17.9661C21.8576 18.7125 22.0073 19.4816 22.41 20.1239C22.8127 20.7662 23.4397 21.2359 24.1693 21.4419C24.8989 21.6479 25.679 21.5755 26.3582 21.2387C27.0373 20.9018 27.5671 20.3247 27.8447 19.6192C28.1222 18.9137 28.1278 18.1303 27.8602 17.421C27.5926 16.7117 27.071 16.1271 26.3966 15.7808C25.9232 15.5376 25.3982 15.424 24.874 15.4457C25.4618 16.5013 25.8862 17.2725 26 17.5C26.5 18.5 26.0901 18.7098 25.5 19C25.0986 19.0342 24.8788 18.9844 24.5 18.5L22.9739 16.2109ZM14.5 11.5L17 15L19 11.5H14.5ZM13 12.5L15.5 16.5H11L13 12.5Z" fill="white"/>
</svg>
