<svg width="35" height="36" viewBox="0 0 35 36" fill="none" xmlns="http://www.w3.org/2000/svg">
<path fill-rule="evenodd" clip-rule="evenodd" d="M29.0458 27.2174C31.5112 24.3342 33 20.591 33 16.5C33 7.3873 25.6127 0 16.5 0C7.3873 0 0 7.3873 0 16.5C0 25.6127 7.3873 33 16.5 33C20.0791 33 23.3921 31.8604 26.0958 29.9243L31.4852 35.3137L34.3137 32.4853L29.0458 27.2174Z" fill="#FFD100"/>
<path d="M9 16.5C7.89286 17.1513 7.38413 17.2941 6.5 17.5C5.79448 17.5073 5 17 5 16.5C5 16 5 15.5 6 15.5C7 15.5 7.89199 14.6304 9 14C10.1205 15.0827 11.0361 15.3686 13 15.5C14.8137 15.3426 15.6436 14.9373 17 14C18.095 14.8357 19.0242 15.0038 21 15C22.2074 14.8929 22.8729 14.7537 24 14C25.2489 14.7785 26.0501 15.0502 27.5 15.5C27.901 15.7791 28.0491 15.9758 28 16.5C27.7437 17.143 27.4566 17.3944 26.5 17.5C25.4247 17.4168 24.8545 17.2761 24 16.5C22.9707 17.204 22.3036 17.4057 21 17.5C19.2289 17.4173 18.3334 17.2247 17 16.5C15.5401 17.1687 14.6236 17.3848 13 17.5C11.3503 17.4407 10.448 17.3136 9 16.5Z" fill="white"/>
<path d="M9 22.5C7.89286 23.1513 7.38413 23.2941 6.5 23.5C5.79448 23.5073 5 23 5 22.5C5 22 5 21.5 6 21.5C7 21.5 7.89199 20.6304 9 20C10.1205 21.0827 11.0361 21.3686 13 21.5C14.8137 21.3426 15.6436 20.9373 17 20C18.095 20.8357 19.0242 21.0038 21 21C22.2074 20.8929 22.8729 20.7537 24 20C25.2489 20.7785 26.0501 21.0502 27.5 21.5C27.901 21.7791 28.0491 21.9758 28 22.5C27.7437 23.143 27.4566 23.3944 26.5 23.5C25.4247 23.4168 24.8545 23.2761 24 22.5C22.9707 23.204 22.3036 23.4057 21 23.5C19.2289 23.4173 18.3334 23.2247 17 22.5C15.5401 23.1687 14.6236 23.3848 13 23.5C11.3503 23.4407 10.448 23.3136 9 22.5Z" fill="white"/>
<path d="M9 10.5C7.89286 11.1513 7.38413 11.2941 6.5 11.5C5.79448 11.5073 5 11 5 10.5C5 10 5 9.5 6 9.5C7 9.5 7.89199 8.63038 9 8C10.1205 9.08265 11.0361 9.36859 13 9.5C14.8137 9.34258 15.6436 8.93731 17 8C18.095 8.83567 19.0242 9.00384 21 9C22.2074 8.89294 22.8729 8.75366 24 8C25.2489 8.77846 26.0501 9.05017 27.5 9.5C27.901 9.77909 28.0491 9.97578 28 10.5C27.7437 11.143 27.4566 11.3944 26.5 11.5C25.4247 11.4168 24.8545 11.2761 24 10.5C22.9707 11.204 22.3036 11.4057 21 11.5C19.2289 11.4173 18.3334 11.2247 17 10.5C15.5401 11.1687 14.6236 11.3848 13 11.5C11.3503 11.4407 10.448 11.3136 9 10.5Z" fill="white"/>
</svg>
