<svg width="35" height="36" viewBox="0 0 35 36" fill="none" xmlns="http://www.w3.org/2000/svg">
<circle cx="16.5" cy="16.5" r="16.5" fill="#4ECDC4"/>
<rect x="25.8284" y="24" width="12" height="4" transform="rotate(45 25.8284 24)" fill="#4ECDC4"/>
<path d="M24.3333 18.9168H10.5833L12.6667 16.4168C12.925 15.9658 12.8335 15.6789 12.6667 15.1668C12.2293 14.9299 11.9657 14.9113 11.4167 15.1668L6 20.1668L11 25.5834C12.065 25.9499 12.2897 25.8259 12.6667 25.5834C13.0977 25.0445 13.038 24.664 12.6667 23.9168L10.5833 21.4168H24.75C25.325 21.1207 25.5337 20.8625 25.5833 20.1668C25.5653 19.8661 25.5 19.5 25.5 19.5C25.5 19.5 24.832 19.0064 24.3333 18.9168Z" fill="white" stroke="#4ECDC4" stroke-width="0.1"/>
<path d="M7.66667 12.6667L21.4167 12.6667L19.3333 15.1667C18.9932 15.68 18.9342 15.9705 19.3333 16.4167C19.8453 16.8458 20.11 16.6919 20.5779 16.4199L20.5833 16.4167L26 11.4167L21 6.00007C20.3808 5.72467 20.0243 5.62668 19.3333 6.00007C18.7246 6.59886 19.0008 7.03613 19.3333 7.66673L21.4167 10.1667L7.25 10.1667C6.61969 10.4683 6.45523 10.753 6.41667 11.4167C6.67226 12.4815 7.05228 12.4927 7.66667 12.6667Z" fill="white" stroke="#4ECDC4" stroke-width="0.1"/>
</svg>
