<svg width="35" height="36" viewBox="0 0 35 36" fill="none" xmlns="http://www.w3.org/2000/svg">
<path fill-rule="evenodd" clip-rule="evenodd" d="M29.0458 27.2174C31.5112 24.3342 33 20.591 33 16.5C33 7.3873 25.6127 0 16.5 0C7.3873 0 0 7.3873 0 16.5C0 25.6127 7.3873 33 16.5 33C20.0791 33 23.3921 31.8604 26.0958 29.9243L31.4852 35.3137L34.3137 32.4853L29.0458 27.2174Z" fill="#FFD100"/>
<path fill-rule="evenodd" clip-rule="evenodd" d="M26 16.5C26 21.7467 21.7467 26 16.5 26C11.2533 26 7 21.7467 7 16.5C7 11.2533 11.2533 7 16.5 7C21.7467 7 26 11.2533 26 16.5ZM14.4146 14.6463L10.939 22.1768L18.4695 18.5853L22.061 10.939L14.4146 14.6463ZM16.3841 17.8903C15.8083 17.8903 15.3415 17.4234 15.3415 16.8476C15.3415 16.2717 15.8083 15.8049 16.3841 15.8049C16.96 15.8049 17.4268 16.2717 17.4268 16.8476C17.4268 17.4234 16.96 17.8903 16.3841 17.8903Z" fill="white"/>
</svg>
