<svg width="35" height="36" viewBox="0 0 35 36" fill="none" xmlns="http://www.w3.org/2000/svg">
<circle cx="16.5" cy="16.5" r="16.5" fill="#4ECDC4"/>
<rect x="25.8284" y="24" width="12" height="4" transform="rotate(45 25.8284 24)" fill="#4ECDC4"/>
<circle cx="8.42495" cy="9.23306" r="1.97065" fill="white" stroke="#4ECDC4" stroke-width="0.1"/>
<path d="M6 23.7818V14.0827L7.21239 12.062H10.0413L12.062 14.4868H14.4867C15.0141 14.6105 15.2411 14.7404 15.295 15.2951C15.3109 15.8783 15.1993 16.1305 14.8909 16.5075H11.2537L10.0413 15.2951V18.5281L11.6578 20.9529V24.1859C11.6158 24.7022 11.518 24.9368 10.8496 24.9942C10.0135 25.0348 9.72616 24.8735 9.63718 24.1859V21.7612L9.23305 21.357L8.42479 20.1446L8.02065 24.1859C7.82809 24.7598 7.64118 24.9277 7.21239 24.9942C6.14173 24.8593 6.25016 24.3821 6 23.7818Z" fill="white" stroke="#4ECDC4" stroke-width="0.1"/>
<path d="M15.295 13.2744H13.2743V6.80826C13.2609 6.32529 13.3636 6.1591 13.6785 6H15.295V13.2744Z" fill="white"/>
<path d="M15.295 17.7198H13.2743V24.1859C13.4055 24.7874 13.6312 24.8887 14.0826 24.9942C14.8419 24.989 15.1679 24.9229 15.295 24.1859V17.7198Z" fill="white"/>
<path d="M15.295 13.2744H13.2743V6.80826C13.2609 6.32529 13.3636 6.1591 13.6785 6H15.295V13.2744Z" stroke="#4ECDC4" stroke-width="0.1"/>
<path d="M15.295 17.7198H13.2743V24.1859C13.4055 24.7874 13.6312 24.8887 14.0826 24.9942C14.8419 24.989 15.1679 24.9229 15.295 24.1859V17.7198Z" stroke="#4ECDC4" stroke-width="0.1"/>
<path d="M23.7819 6H16.5076L17.72 14.4868V16.1033C16.9949 18.3778 16.5994 19.634 16.5076 20.5487C16.6481 21.1996 16.7407 21.4148 16.9117 21.7611C17.1272 22.28 17.3533 22.3567 17.72 22.5694C18.1359 22.4243 18.3106 22.1513 18.5282 21.357C19.0657 22.3205 19.4414 22.4801 20.1447 22.5694C20.6412 22.6056 20.9143 22.4605 21.3571 21.357C21.8701 22.4186 22.2419 22.5896 22.9737 22.5694C23.4595 22.3784 23.7406 22.2857 23.7819 21.357V6Z" fill="white" stroke="#4ECDC4" stroke-width="0.1"/>
<path d="M24.9941 24.1859V6H26.2065C27.1834 6.6093 26.937 6.91069 27.0148 7.21239V24.1859C26.8822 24.7175 26.6705 24.8529 26.2065 24.9942C25.5053 25.0053 25.1304 24.9156 24.9941 24.1859Z" fill="white" stroke="#4ECDC4" stroke-width="0.1"/>
</svg>
