<svg width="35" height="36" viewBox="0 0 35 36" fill="none" xmlns="http://www.w3.org/2000/svg">
<circle cx="16.5" cy="16.5" r="16.5" fill="#4ECDC4"/>
<rect x="25.8284" y="24" width="12" height="4" transform="rotate(45 25.8284 24)" fill="#4ECDC4"/>
<path d="M13.5 24.5L13 23V17L14 16L15 15.5H25L27 16.5L27.5 17.5V23.5L26.5 24.5L25.5 25H14.5L13.5 24.5Z" fill="white" stroke="#4ECDC4" stroke-width="0.1"/>
<path d="M18 18H16.5V20.5L17.5 22L19.5 23H21L23 22L24 20.5V18H22.5V20L22 21L21 21.5H19.5L18.5 20.5L18 19.5V18Z" fill="#4ECDC4" stroke="#4ECDC4" stroke-width="0.1"/>
<path d="M12 16.5V24H7.5L7 23.5L6 22V13.5L6.5 12.5L7.5 12H10.5V9L11 7.5L12 6.5L13 6H15.5L16.5 6.5L17.5 7L18 8.5V12H20.5L22 13L22.5 14.5H14L12.5 15L12 16.5Z" fill="white" stroke="#4ECDC4" stroke-width="0.1"/>
<path d="M16 12H12.5V9L13 8L14 7.5H14.5L15.5 8L16 9V12Z" fill="#4ECDC4" stroke="#4ECDC4" stroke-width="0.1"/>
</svg>
