<svg width="35" height="36" viewBox="0 0 35 36" fill="none" xmlns="http://www.w3.org/2000/svg">
<path fill-rule="evenodd" clip-rule="evenodd" d="M29.0458 27.2174C31.5112 24.3342 33 20.591 33 16.5C33 7.3873 25.6127 0 16.5 0C7.3873 0 0 7.3873 0 16.5C0 25.6127 7.3873 33 16.5 33C20.0791 33 23.3921 31.8604 26.0958 29.9243L31.4852 35.3137L34.3137 32.4853L29.0458 27.2174Z" fill="#FFD100"/>
<path d="M22 5H17V8.67925L22 10V5Z" fill="white"/>
<path fill-rule="evenodd" clip-rule="evenodd" d="M16.4744 25.5875C20.6023 25.5875 23.9487 22.2411 23.9487 18.1131C23.9487 13.9851 20.6023 10.6387 16.4744 10.6387C12.3464 10.6387 9 13.9851 9 18.1131C9 22.2411 12.3464 25.5875 16.4744 25.5875ZM16.3676 14.0556L17.6489 16.6182L20.3183 16.9386L18.3963 18.9673L18.8234 21.6367L16.3676 20.4622L13.8049 21.6367L14.3388 18.9673L12.31 16.9386L14.9795 16.6182L16.3676 14.0556Z" fill="white"/>
<path d="M16 5H11V10L16 8.5V5Z" fill="white"/>
</svg>
