<svg width="35" height="36" viewBox="0 0 35 36" fill="none" xmlns="http://www.w3.org/2000/svg">
<path fill-rule="evenodd" clip-rule="evenodd" d="M29.0458 27.2174C31.5112 24.3342 33 20.591 33 16.5C33 7.3873 25.6127 0 16.5 0C7.3873 0 0 7.3873 0 16.5C0 25.6127 7.3873 33 16.5 33C20.0791 33 23.3921 31.8604 26.0958 29.9243L31.4852 35.3137L34.3137 32.4853L29.0458 27.2174Z" fill="#FFD100"/>
<path fill-rule="evenodd" clip-rule="evenodd" d="M17.1792 9.35835C18.3827 9.35835 19.3583 8.3827 19.3583 7.17917C19.3583 5.97565 18.3827 5 17.1792 5C15.9756 5 15 5.97565 15 7.17917C15 8.3827 15.9756 9.35835 17.1792 9.35835ZM13.1017 8.79411L10.9225 17.075L7 15.7675L8.74334 10.1016C9.60257 8.33104 10.7888 8.39079 13.1017 8.79411ZM14.4092 21.8692L11.7942 19.2541L10.0508 25.3558C9.88414 26.3505 10.1853 26.7249 11.3583 27.0992C12.1736 27.3093 12.5895 27.2593 13.1017 26.2275L14.4092 21.8692ZM12.6659 17.9466L16.5884 21.8692V26.2275C16.6831 27.3604 17.1873 27.5157 18.3317 27.535C19.1398 27.5025 19.5799 27.4633 19.6392 26.2275V21.4333L16.5884 17.9466L17.46 14.46L18.7675 15.7675H21.8184V26.2275C21.8592 27.2688 22.2826 27.3991 23.1259 27.535C23.7532 27.3022 24.0293 27.0991 23.9976 26.2275V12.2808C23.8901 11.7743 23.8242 11.4942 23.1259 11.4091C22.4193 11.3264 22.1562 11.4516 21.8184 11.845V12.7166H20.5109L17.46 10.5374C17.0597 10.3098 16.8128 10.1936 16.1525 10.1016C14.9873 10.1007 14.4318 10.2042 13.9734 10.9733L12.6659 17.9466Z" fill="white"/>
</svg>
